<svg width="60" height="20" viewBox="0 0 60 20" fill="none" xmlns="http://www.w3.org/2000/svg">
<path d="M2.525 14.2125L3.8625 10.2375L0.6375 8.075H4.5875L6 3.8125L7.4375 8.075H11.3625L8.1375 10.2375L9.5 14.2125L6 11.675L2.525 14.2125ZM14.5245 14.2125L15.862 10.2375L12.637 8.075H16.587L17.9995 3.8125L19.437 8.075H23.362L20.137 10.2375L21.4995 14.2125L17.9995 11.675L14.5245 14.2125ZM26.524 14.2125L27.8615 10.2375L24.6365 8.075H28.5865L29.999 3.8125L31.4365 8.075H35.3615L32.1365 10.2375L33.499 14.2125L29.999 11.675L26.524 14.2125ZM38.5235 14.2125L39.861 10.2375L36.636 8.075H40.586L41.9985 3.8125L43.436 8.075H47.361L44.136 10.2375L45.4985 14.2125L41.9985 11.675L38.5235 14.2125ZM50.523 14.2125L51.8605 10.2375L48.6355 8.075H52.5855L53.998 3.8125L55.4355 8.075H59.3605L56.1355 10.2375L57.498 14.2125L53.998 11.675L50.523 14.2125Z" fill="#38BDF8"/>
</svg>
